<svg xmlns="http://www.w3.org/2000/svg" viewBox="0 0 200 200" width="200" height="200">
  <rect width="200" height="200" fill="#4c9dff"/>
  <g color="#07090f">
    <mask id="f" maskUnits="userSpaceOnUse" x="0" y="0" width="200" height="200">
      <rect width="200" height="200" fill="#fff"/>
      <circle cx="100" cy="100" r="21" fill="#000"/>
    </mask>
    <g fill="currentColor" stroke="currentColor" stroke-width="8" stroke-linejoin="round" mask="url(#f)">
      <path d="M64 28 96.9 47 96.9 85 64 104 31.1 85 31.1 47Z"/>
      <path d="M64 96 96.9 115 96.9 153 64 172 31.1 153 31.1 115Z"/>
      <path d="M133 62 165.9 81 165.9 119 133 138 100.1 119 100.1 81Z"/>
    </g>
    <g fill="currentColor">
      <path d="M94.40 91.60 97.34 93.30 97.34 96.70 94.40 98.40 91.46 96.70 91.46 93.30Z"/>
      <path d="M105.60 91.60 108.54 93.30 108.54 96.70 105.60 98.40 102.66 96.70 102.66 93.30Z"/>
      <path d="M94.00 106.20 95.50 108.80 104.50 108.80 106.00 106.20" stroke="currentColor" stroke-width="2.2" stroke-linecap="round" stroke-linejoin="round" fill="none"/>
    </g>
    <path d="M133 60 143.5 45" stroke="currentColor" stroke-width="2.2" stroke-linecap="round"/>
    <circle cx="144.5" cy="43.4" r="2.6" fill="currentColor"/>
  </g>
</svg>
